<svg width="452" height="393" viewBox="0 0 452 393" fill="none" xmlns="http://www.w3.org/2000/svg">
<path d="M310.236 40.6941L48.8222 31.4309V31.4521C48.0989 31.4309 47.3969 31.7059 46.8651 32.1923C46.3332 32.6999 46.0354 33.4189 46.0566 34.1592V249.482C46.0354 250.899 47.1416 252.062 48.5457 252.189L309.96 271.561C310.64 271.561 311.3 271.308 311.81 270.863C312.364 270.335 312.683 269.616 312.683 268.854V43.4017C312.704 42.0059 311.64 40.8421 310.236 40.6941ZM307.3 265.935L51.3326 246.922V36.9761L307.3 46.007V265.935ZM60.7544 238.103C60.8182 238.294 60.9033 238.484 61.0309 238.653V238.97C61.3713 239.33 61.7755 239.626 62.2223 239.837C62.4988 239.88 62.7754 239.88 63.0307 239.837L295.471 256.461C296.173 256.439 296.833 256.165 297.343 255.699C297.875 255.192 298.194 254.494 298.194 253.754V61.1706C298.173 59.7113 297.003 58.527 295.535 58.4635L63.3723 50.3422C62.6277 50.3211 61.9256 50.596 61.415 51.1036C60.8619 51.6112 60.5641 52.3091 60.5854 53.0493V237.132V237.513C60.6067 237.724 60.648 237.913 60.7544 238.103ZM293.021 250.941L70.4539 235.079L83.3035 224.906C92.1322 226.154 150.231 234.212 179.482 235.417C212.159 236.834 279.086 239.372 293.045 239.901L293.021 250.941ZM293.021 63.7287V234.422C278.64 233.872 212.2 231.398 179.692 229.981C151.589 228.839 96.2577 221.267 84.9787 219.639C81.4047 192.081 79.4689 164.333 79.2135 136.541C79.3624 109.83 81.1919 83.1608 84.6596 56.6821L293.021 63.7287ZM66.0262 56.0303L79.3224 56.4533C75.8973 83.0164 74.0677 109.75 73.8763 136.545C74.1315 164.737 76.0462 192.907 79.6415 220.888L66.0262 231.716V56.0303ZM451.933 248.824C451.891 248.423 451.784 248.042 451.614 247.682V247.407C451.359 247.048 450.997 246.752 450.572 246.54C450.338 246.498 450.061 246.498 449.827 246.54L386.772 242.86L403.599 221.584H403.578C403.961 221.119 404.174 220.527 404.174 219.913V49.6423C404.174 48.6483 403.621 47.7389 402.77 47.2524L368.412 28.3661L368.391 12.7581C368.391 11.8486 367.923 10.9816 367.136 10.4951C366.349 10.0086 365.37 9.94522 364.54 10.3259L363.243 10.9181H363.221C362.753 10.5797 362.221 10.3894 361.647 10.3259L108.724 0.0475867C108.468 -0.0158622 108.213 -0.0158622 107.958 0.0475867L34.9905 18.9339L34.3948 19.2089C34.2672 19.1877 34.1395 19.1877 34.0119 19.2089V19.4838C33.863 19.6107 33.7566 19.7799 33.6928 19.9702C33.6715 20.1183 33.6715 20.2663 33.6928 20.3932C33.6502 20.6047 33.6502 20.795 33.6928 20.9854V273.254C33.6715 274.65 34.7778 275.835 36.1818 275.961H37.9688L0.632898 296.413H0.356337C0.207418 296.518 0.0797776 296.666 0.0159544 296.857V297.28C-0.00531814 297.491 -0.00531814 297.681 0.0159544 297.872V298.189V359.223C0.0159544 360.64 1.12217 361.803 2.52629 361.93L365.565 392.999C366.884 393.041 368.012 392.089 368.182 390.778L451.192 307.448C451.702 306.962 452 306.285 452 305.566V248.993C452 248.993 451.933 248.888 451.933 248.824ZM362.562 17.0481V29.9913V29.9701C362.562 30.9641 363.115 31.8524 363.988 32.3177L398.345 51.204V105.833L374.986 122.499C374.412 122.922 374.008 123.577 373.901 124.275C373.774 124.994 373.965 125.713 374.39 126.305C374.88 127.025 375.688 127.448 376.56 127.426C377.135 127.448 377.709 127.257 378.156 126.898L398.366 112.495V121.906L374.986 138.593C374.411 139.016 374.007 139.65 373.901 140.369C373.773 141.067 373.965 141.807 374.39 142.379C374.901 143.076 375.709 143.499 376.56 143.521C377.134 143.499 377.688 143.309 378.156 142.971L398.366 128.568V137.979L375.007 154.645L374.985 154.666C374.411 155.089 374.007 155.702 373.9 156.421C373.794 157.119 373.964 157.838 374.39 158.409C374.879 159.128 375.687 159.551 376.56 159.551C377.134 159.551 377.687 159.382 378.155 159.044L398.365 144.641V154.01L375.006 170.676L374.985 170.697C374.411 171.12 374.006 171.754 373.9 172.473C373.772 173.171 373.964 173.912 374.389 174.483C374.879 175.202 375.687 175.625 376.559 175.625C377.134 175.625 377.687 175.455 378.155 175.138L398.365 160.672V170.083L374.985 186.77C374.41 187.193 374.006 187.827 373.9 188.547C373.772 189.266 373.963 189.985 374.389 190.556C374.9 191.275 375.708 191.698 376.559 191.698C377.133 191.677 377.665 191.465 378.091 191.106L398.301 176.703V218.726L342.799 288.834L326.035 292.514V34.095L362.562 17.0481ZM333.693 296.431L326.013 302.607V298.123L333.693 296.431ZM108.572 5.46173L350.86 15.3172L322.821 29.6561L54.3214 19.5256L108.572 5.46173ZM320.59 305.359L69.5782 286.177V278.606L320.59 298.423V305.359ZM38.4154 24.3519L320.574 35.1802L320.595 293.01L38.4204 270.76L38.4154 24.3519ZM363.119 387.379L4.65491 356.734V343.135L363.119 373.611V387.379ZM316.721 354.894V364.369L284.044 361.598V352.123L316.721 354.894ZM284.044 346.941V334.654L316.721 336.98V349.162L284.044 346.941ZM363.078 368.598L322.126 365.087L322.105 354.999L338.124 356.247C339.634 356.247 340.847 355.041 340.847 353.54C340.847 352.038 339.634 350.833 338.124 350.833L321.786 349.585V334.421C321.786 333.004 320.7 331.841 319.275 331.714L281.152 329.007C280.408 328.964 279.663 329.239 279.131 329.747C278.578 330.255 278.259 330.974 278.28 331.714V346.286L261.517 344.995H261.495C260.006 344.911 258.73 346.011 258.56 347.47C258.496 348.189 258.73 348.908 259.198 349.458C259.666 350.008 260.347 350.346 261.07 350.41L278.281 351.7V361.006L4.65648 337.72V301.725L363.12 328.796L363.078 368.598ZM364.057 323.994L11.0987 296.924L45.8815 277.36C46.1368 277.233 46.3495 277.043 46.5409 276.811L63.9217 278.164L63.9004 288.57C63.8792 289.987 64.9854 291.192 66.4108 291.277L322.934 310.882C323.275 310.967 323.615 310.967 323.955 310.882H324.657L345.634 293.878C345.655 293.772 345.655 293.667 345.634 293.561L382.118 247.477C382.608 248.09 383.31 248.45 384.097 248.513L441.94 251.918L364.057 323.994ZM446.516 304.876L368.572 382.938V372.109L446.56 295.168L446.516 304.876ZM446.516 287.935L368.572 364.644V326.744L446.56 255.152L446.516 287.935ZM48.9493 330.382L20.1442 328.055L20.1229 314.351L48.928 316.677L48.9493 330.382ZM286.983 279.899C287.004 282.331 285.558 284.509 283.303 285.461C281.069 286.391 278.474 285.884 276.75 284.17C275.049 282.457 274.538 279.877 275.474 277.657C276.41 275.436 278.623 273.977 281.048 273.998C282.622 273.998 284.132 274.632 285.239 275.732C286.366 276.832 286.983 278.334 286.983 279.899Z" fill="#74F0ED"/>
</svg>
