<svg width="214" height="939" viewBox="0 0 214 939" fill="none" xmlns="http://www.w3.org/2000/svg">
<mask id="mask0_39_578" style="mask-type:luminance" maskUnits="userSpaceOnUse" x="0" y="528" width="215" height="256">
<path d="M0.029541 528.003H214.444V783.102H0.029541V528.003Z" fill="white"/>
</mask>
<g mask="url(#mask0_39_578)">
<path d="M214.444 528.003V785.232H0.029541V528.003H214.444Z" fill="black"/>
</g>
<mask id="mask1_39_578" style="mask-type:luminance" maskUnits="userSpaceOnUse" x="0" y="528" width="215" height="256">
<path d="M0 528H215V783.102H0V528Z" fill="white"/>
</mask>
<g mask="url(#mask1_39_578)">
<path d="M55.0301 828.679C55.2894 827.872 55.5488 827.156 55.5488 827.156C55.8055 826.349 56.0648 825.72 56.236 825.361C58.3911 820.968 59.597 818.635 59.597 818.727C59.597 818.727 58.6478 820.698 56.5809 824.823C56.4953 825.004 56.236 825.72 55.9793 826.438C55.6344 827.334 55.2894 828.142 55.0301 828.679ZM120.753 742.864L121.44 740.173L120.234 744.298L119.373 747.435L120.753 742.864ZM231.522 495.008C230.746 495.994 230.056 496.893 229.455 497.608C230.056 496.801 230.661 496.085 231.522 495.008ZM10.4119 622.97C16.9601 626.11 19.6286 627.365 19.6286 627.365C19.6286 627.365 17.3906 626.199 13.8584 624.495L10.4119 622.97ZM229.455 497.608C229.11 498.056 228.765 498.415 228.42 498.953C228.679 498.504 229.024 498.056 229.455 497.608ZM-8.27821 613.826L-12.9307 611.582L-15.5992 610.326L-8.27821 613.826ZM-77.271 580.288L-78.3914 579.57C-78.1347 579.748 -77.7015 580.018 -77.271 580.288ZM90.0011 698.744L88.5385 699.373L79.6667 703.406L90.0011 698.744ZM115.499 582.259L119.459 574.367L110.932 591.136L115.499 582.259ZM274.158 550.965C274.33 550.873 274.415 550.873 274.503 550.784C274.33 550.873 274.244 550.965 274.158 550.965ZM117.566 754.071C117.566 754.252 117.477 754.341 117.477 754.52C117.477 754.43 117.477 754.252 117.566 754.071ZM-7.67392 571.23C-2.93857 574.189 6.27812 580.018 15.5804 585.936C8.51879 581.363 -3.1097 574.011 -7.67392 571.23ZM109.469 718.471C110.242 716.949 110.675 715.96 111.707 713.99C110.761 715.871 109.985 717.397 109.469 718.471ZM55.0301 828.679C55.7199 827.156 56.4098 825.631 57.0969 824.016C58.5622 821.146 59.9419 818.187 61.4045 815.317C61.7494 814.513 62.2655 813.525 62.4392 813.166C62.5248 812.987 62.9553 812.091 63.1264 811.732C65.2815 807.428 67.2628 803.392 69.0703 799.804C69.2441 799.626 70.9661 796.038 73.3779 791.286C72.2576 793.527 70.7923 796.308 69.0703 799.804L69.9313 797.922C71.8271 793.978 72.688 792.722 73.4635 791.197C76.2202 785.546 80.0972 777.835 84.4877 768.958C87.8487 762.144 88.6241 760.438 97.0654 743.491L92.8434 752.19C95.2552 747.346 96.806 744.209 98.2712 741.25C99.0467 739.724 100.253 737.214 101.715 734.255C103.956 729.681 106.023 725.556 109.555 718.293C109.124 719.1 108.951 719.549 108.779 719.819L113.86 709.505L102.491 722.597C99.3916 726.274 96.2899 729.862 91.0359 735.958L93.1883 733.269C92.5867 733.895 91.8968 734.703 91.3808 735.332L91.8113 734.792C91.5519 735.062 90.8621 735.869 90.5171 736.228C82.8513 745.105 72.688 756.852 64.5061 766.358C60.3724 771.11 56.7547 775.325 54.0835 778.373C52.1022 780.616 50.637 782.32 50.0354 782.946C50.1209 782.857 50.1209 782.857 50.1209 782.857C50.1209 782.946 47.3642 786.175 43.0593 791.108C36.856 798.192 28.0698 808.325 19.543 818.187C18.9414 818.635 18.2515 819.084 17.6472 819.535C17.9922 818.727 18.3371 817.92 18.682 817.202C22.9896 811.103 26.8639 805.633 29.7062 801.599C27.6394 804.558 26.3479 806.351 25.5725 807.428C24.4521 809.04 24.0217 809.669 23.765 810.117C30.1367 801.151 36.5111 792.093 42.8855 783.035C49.0006 774.339 55.2039 765.729 61.3189 757.03C73.033 740.443 84.8326 723.852 96.5466 707.353L96.7204 707.172C96.5466 707.264 96.2044 707.532 95.8595 707.802C95.2552 708.339 94.8247 708.698 94.2231 709.235C91.207 711.746 85.4369 716.5 79.4929 721.43C72.0864 727.799 65.8831 733.177 53.9124 743.043L60.5435 737.395C25.5725 766.537 11.5322 778.195 -16.8051 801.778L-14.9093 800.074C-16.2034 801.151 -17.4093 802.226 -18.9602 803.481C-20.5965 804.648 -22.0591 805.814 -23.61 806.888C-22.4896 805.633 -21.3693 804.378 -20.4227 803.214C-15.3425 798.37 -10.3451 793.619 -5.78085 789.312C4.81554 779.539 25.7463 759.633 48.6557 737.751L48.3134 738.021C51.4124 735.062 52.1022 734.433 52.1022 734.433C64.851 722.329 78.0277 709.775 90.2605 698.206C86.1267 699.999 82.1641 701.794 78.3726 703.498C77.2549 704.035 71.4821 706.635 64.6772 709.775L63.3858 710.491C52.4471 715.423 39.9577 721.074 29.7945 725.645C11.706 733.806 -5.00544 741.25 -20.7677 748.334C-22.1447 748.961 -23.0083 749.409 -23.0083 749.409C-23.0083 749.409 -22.2329 749.05 -20.3372 748.242C-32.3106 753.623 -45.661 759.633 -59.6157 765.91C-60.4767 766.088 -61.3377 766.358 -62.2842 766.537C-61.5944 765.999 -60.9072 765.37 -60.1318 764.744L-60.0462 764.655L-58.6665 763.848C-58.0649 763.488 -58.1505 763.578 -57.72 763.308C-49.2787 758.467 -41.0086 753.712 -32.6555 748.872C-28.348 746.361 -24.6447 744.209 -22.749 743.132C-8.7087 735.062 -2.67921 731.655 4.12569 727.799C17.821 719.997 29.88 713.093 38.3213 708.25C44.4364 704.662 50.0354 701.524 55.8055 698.117C55.0301 698.565 54.8589 698.654 53.9124 699.192L47.3642 702.958C42.9711 705.469 37.6315 708.52 37.6315 708.52C37.6315 708.52 38.4924 707.98 40.6475 706.724L43.1449 705.38C51.5862 700.447 73.4635 687.804 73.4635 687.804C73.4635 687.804 73.2041 687.985 72.5169 688.341C74.3244 687.356 75.7897 686.459 76.91 685.83C77.5972 685.382 78.2015 685.115 78.5464 684.934C78.8031 684.845 78.8913 684.756 78.8913 684.756C78.8913 684.756 78.8031 684.756 78.7175 684.845C78.5464 684.934 78.287 685.115 77.9421 685.293C77.1667 685.741 76.3057 686.281 75.2736 686.818C73.2041 687.985 70.7067 689.418 68.0383 691.033C72.5169 688.433 76.4795 686.189 80.0972 684.038C78.3726 684.486 76.8218 684.934 75.2736 685.293C49.0888 692.377 22.9013 699.373 -8.7087 707.891L-8.01885 707.712C-16.7195 710.042 -29.5539 713.45 -40.6636 716.32C-40.062 716.23 -34.1181 714.705 -30.0699 713.631C-40.6636 716.409 -50.7413 719.1 -60.1318 721.611C-60.9072 721.611 -61.5944 721.611 -62.1987 721.611C-61.6826 721.163 -61.1639 720.804 -60.8216 720.445C-50.2253 716.32 -41.0086 712.823 -33.5165 709.864L-46.4364 714.797C-38.685 711.838 -32.3962 709.416 -25.9362 706.905L-33.2571 709.864C-29.4683 708.428 -26.0217 707.083 -23.4388 706.098C-22.1447 705.561 -21.1126 705.202 -20.4227 704.932C-19.7329 704.662 -19.3906 704.483 -19.3906 704.483C-17.0644 703.587 -16.5484 703.406 -16.5484 703.498C-16.5484 703.498 -16.6339 703.587 -16.7195 703.587C-16.8051 703.676 -16.8906 703.676 -16.8906 703.676C-16.8906 703.676 -16.289 703.498 -13.6178 702.51C-5.95198 699.551 1.97058 696.503 10.3263 693.274C10.5857 693.185 12.0509 692.558 12.0509 692.558C12.0509 692.558 9.89581 693.274 1.02405 696.773C6.19256 694.799 12.567 692.377 20.1473 689.418L17.0456 690.585C47.4498 678.749 31.0859 685.382 62.6104 673.279C62.0088 673.457 61.7494 673.546 61.7494 673.546C61.7494 673.546 62.351 673.279 63.3858 672.828C63.8163 672.65 64.2468 672.471 64.6772 672.291C64.7628 672.291 64.851 672.201 65.0222 672.112C65.196 672.023 65.4527 671.931 65.6265 671.842C65.2815 671.842 65.0222 671.931 64.7628 671.931C65.196 671.842 65.5382 671.842 65.712 671.842C65.5382 671.931 65.4527 671.931 65.4527 671.931C65.4527 671.931 65.712 671.842 66.4019 671.664C66.1425 671.664 65.712 671.664 65.1077 671.753C64.5061 671.842 63.8163 671.842 63.0409 671.931C62.0088 672.023 60.8884 672.201 59.6825 672.291C54.5996 672.828 50.8108 673.279 47.538 673.635C46.1583 673.816 44.7813 673.994 43.316 674.083L44.5219 673.905C36.5111 674.801 32.8079 675.16 25.2276 675.968L34.2731 674.982C10.2407 677.671 -19.7329 680.989 -49.6236 684.397C-50.3991 684.578 -48.7627 684.397 -54.8777 685.115C-61.5944 685.833 -67.2816 686.459 -72.1052 686.997C-73.0517 686.907 -73.8272 686.818 -74.6026 686.729C-73.8272 686.37 -73.2229 686.011 -72.7924 685.741C-64.2655 684.038 -55.3082 682.245 -39.3722 679.016C-42.4738 679.645 -44.3696 680.093 -44.3696 680.093C-44.3696 680.093 -42.3883 679.734 -37.5647 678.749C-29.8106 677.134 -20.6821 675.339 -11.0349 673.368C-8.96806 672.92 -6.90119 672.561 -4.83164 672.112C14.3745 668.257 33.8426 664.31 44.2652 662.158L31.7758 664.758C38.0619 663.503 43.2305 662.428 47.6236 661.532C50.8963 660.903 53.4792 660.365 55.8055 659.917C51.8429 659.199 48.7439 658.662 45.3829 658.122C43.1449 657.765 41.078 657.406 38.7518 657.047L43.5754 657.855C36.4256 656.599 27.8987 655.163 12.222 652.563L34.7892 656.51C20.5778 654.088 8.25943 652.026 8.25943 652.115C8.25943 652.115 8.43323 652.204 8.86372 652.293C-5.95198 649.782 1.10961 650.859 -9.56967 648.977C-12.5858 648.437 -15.5136 647.989 -18.8719 647.363C-19.8211 647.182 -20.4227 647.093 -21.4575 646.915H-21.1982C-27.1421 645.927 -32.5673 644.941 -33.947 644.671L-52.4659 641.712C-66.8485 639.29 -76.6694 637.587 -85.1963 636.153C-85.8861 635.975 -86.5733 635.705 -87.3487 635.524C-87.0065 635.616 -86.4022 635.794 -85.8006 636.064C-86.8327 635.705 -87.8674 635.435 -88.8995 635.076C-87.7792 634.987 -86.6615 634.898 -85.6268 634.809C-78.8219 635.346 -72.3619 635.794 -65.9875 636.242C-67.7121 636.153 -68.5731 636.064 -71.3298 635.794C-60.9072 636.512 -51.7761 637.23 -50.8295 637.32C-49.7948 637.409 -48.7627 637.498 -47.8135 637.498C-45.4017 637.679 -42.3883 637.857 -38.5968 638.216C-32.0512 638.664 -25.6768 639.201 -19.3024 639.649L-8.79426 640.368L-10.5189 640.279L-18.4414 639.741C-16.0296 639.919 -13.7034 640.098 -11.3799 640.279C-11.1205 640.279 -10.7756 640.279 -10.6044 640.368C-10.5189 640.368 -10.4306 640.368 -10.3451 640.368C11.3611 641.893 32.3774 643.416 53.5675 644.941C54.514 645.03 55.6344 645.119 57.1852 645.3C55.375 644.404 53.137 643.327 50.7252 642.16C47.6236 640.638 44.0914 638.934 40.4737 637.23C33.2384 633.731 25.2276 629.876 17.4761 626.11C5.58827 620.37 -5.26213 615.17 -13.3612 611.315C-33.086 601.808 -56.1692 590.688 -74.9475 581.544C-76.1534 580.825 -77.0999 580.288 -78.0465 579.748L-78.8219 579.3C-77.271 579.748 -75.9796 580.018 -74.9475 580.288C-70.8993 581.811 -67.8832 582.888 -65.3003 583.784C-58.1505 586.384 -51.26 588.895 -46.6931 590.51C-50.6557 589.076 -55.3082 587.462 -60.1318 585.669C-57.8911 586.473 -55.7387 587.281 -53.0675 588.358C-45.9177 590.958 -39.4577 593.199 -35.324 594.724L-32.3962 595.89C-32.2224 595.98 -32.0512 595.98 -31.8801 596.069C-28.5191 597.235 -27.3132 597.683 -27.3132 597.683C-27.3132 597.683 -30.6742 596.428 -34.0325 595.261C-37.3909 594.006 -40.7519 592.842 -40.7519 592.842C-40.7519 592.842 -40.1476 593.021 -38.7706 593.558C-34.2037 594.905 -0.181852 607.548 21.4387 615.17L16.1847 613.285C21.5243 615.259 27.6394 617.411 34.4442 619.833C40.3882 621.984 46.9337 624.406 53.8242 626.917C47.3642 621.984 40.3882 616.785 33.1528 611.315L33.2384 611.404C30.1367 608.982 26.0885 605.934 22.0404 602.794C18.0804 599.835 14.2889 596.965 11.0161 594.365C4.29681 589.254 -2.59365 584.054 -9.74347 578.584C-10.3451 578.136 -10.4306 578.136 -11.3799 577.329C-11.7248 577.059 -11.7248 577.059 -11.9815 576.881C-19.7329 571.052 -27.3132 565.223 -34.2037 560.02C-29.4683 563.698 -26.5378 565.938 -26.5378 565.938C-26.5378 565.938 -27.1421 565.49 -28.4335 564.594C-37.6502 557.601 -28.2624 564.505 -42.3883 553.835C-45.5755 551.502 -48.4177 549.351 -51.4312 547.107C-54.8777 544.507 -58.7521 541.637 -61.9393 539.218C-66.0757 536.078 -69.8645 533.3 -71.5865 532.134C-71.672 532.045 -71.7603 532.045 -71.7603 531.953L-71.672 532.045L-49.4498 548.813C-52.0354 546.84 -55.0488 544.688 -58.1505 542.266C-62.7147 538.859 -67.4527 535.182 -72.2763 531.594C-73.1373 530.697 -74.1721 529.801 -75.2042 528.816C-73.8272 529.534 -72.5357 530.16 -71.3298 530.789C-70.9849 530.967 -70.7255 531.146 -70.3806 531.416L-71.672 530.608L-72.3619 530.16C-72.2763 530.249 -72.1052 530.249 -72.1052 530.338C-54.1879 541.729 -45.3161 547.377 -35.7545 553.476C-28.6047 557.958 -22.2329 562.083 -16.7195 565.582L-21.4575 562.623C-19.4762 563.878 -17.3211 565.312 -15.0831 566.657C-11.7248 568.808 -9.05362 570.423 -4.74608 573.204L-5.091 573.023C7.56958 581.003 20.4922 589.165 27.6394 593.739L29.9656 595.083C35.3935 598.49 44.7813 604.497 57.0114 612.389C55.891 610.775 53.4792 607.459 51.0675 604.23C50.2947 603.153 49.6904 602.257 48.7439 601.001L49.0888 601.449C47.1931 598.849 45.4711 596.428 43.5754 593.917C41.5941 591.228 39.6128 588.447 37.5459 585.669C42.8 592.931 50.0354 602.975 56.7547 612.122C50.637 608.264 45.038 604.678 40.3882 601.63C44.2652 604.141 50.2947 607.907 56.4953 611.852C52.8776 606.919 49.2599 601.898 46.1583 597.594C42.6288 592.75 39.8721 588.895 38.4924 587.013L49.2599 601.808C43.7465 594.276 37.2865 585.218 29.88 574.996C22.7302 565.223 15.4948 555.358 8.68992 546.122C8.43323 545.854 8.43323 545.854 8.0883 545.403L8.25943 545.584L8.00007 545.225C5.07222 541.37 -1.64444 532.134 -9.56967 521.372L-9.31298 521.82C-11.9815 518.143 -13.3612 516.172 -14.3077 514.917C-21.9736 504.514 -29.9844 493.486 -36.6155 484.428C-37.3909 483.172 -37.9952 482.006 -38.5112 481.109C-37.4764 482.006 -36.7037 482.635 -36.2732 482.902C-35.324 483.979 -34.463 484.965 -33.6876 485.861C-17.4093 504.425 -1.21395 522.898 15.5804 542.088C30.741 559.305 46.3321 577.148 63.2147 596.339C62.6104 594.813 61.9205 593.199 61.3189 591.676C61.7494 592.75 62.1799 593.65 62.4392 594.365C62.6104 594.724 62.6959 594.994 62.8697 595.353C62.9553 595.442 62.9553 595.531 62.9553 595.62C63.0409 595.801 63.1264 595.89 63.1264 595.98C63.2147 596.069 63.2147 596.16 63.2147 596.16C63.2147 596.16 63.1264 595.98 63.0409 595.71C62.7842 595.083 62.4393 594.187 62.0088 593.199C60.0275 588.447 57.0969 581.184 56.4953 579.57C54.6851 575.175 52.7065 570.423 50.2947 564.505C51.5006 567.645 53.137 571.589 53.137 571.678C53.137 571.767 52.1878 569.616 49.5193 563.071C50.8108 566.119 51.2412 567.194 51.2412 567.194C51.2412 567.105 49.8616 563.698 48.4845 560.29C47.1075 556.883 45.7278 553.384 45.7278 553.384C45.7278 553.384 46.1583 554.461 47.3642 557.331L47.0193 556.524L33.2384 523.257C32.5485 521.642 32.2918 521.013 32.2918 521.013C32.2918 521.102 33.5833 524.331 34.9603 527.56C36.2544 530.789 37.6315 534.015 37.6315 534.105C26.4335 506.844 32.8079 522.717 25.4014 504.692C25.5725 505.141 25.658 505.322 25.658 505.322C25.658 505.141 20.8345 493.305 15.1499 479.584L24.281 501.466C18.166 486.49 14.805 478.239 11.8771 471.336C10.4119 467.929 9.1204 464.789 7.74338 461.382C5.67651 456.449 3.43584 450.979 0.679121 444.165C0.764684 443.806 0.764684 443.358 0.85292 442.998C1.19784 443.177 1.54009 443.358 1.97058 443.628C3.95189 447.213 6.02143 451.068 8.25943 455.194L1.88502 443.358C1.54009 443.177 1.28341 442.998 1.02405 442.909C1.19784 442.909 1.45453 442.998 1.79946 443.088C8.00007 454.475 17.4761 471.784 26.7784 488.912C34.9603 503.977 43.0593 518.772 47.9685 528.008C48.915 529.712 49.776 531.237 50.5514 532.76C51.2412 533.926 51.7573 534.912 51.7573 534.823C51.7573 534.823 51.0675 533.567 49.2599 530.071C58.9927 547.914 69.6746 567.553 80.0972 586.654C78.7175 571.589 77.4261 556.794 76.1346 543.073C74.7549 528.457 73.549 515.006 72.4314 503.437L72.688 507.384C71.9126 498.864 71.3966 492.138 70.45 482.454C70.5356 483.172 70.5356 483.261 70.6212 484.157C70.5356 483.261 70.45 482.095 70.3618 481.02C70.2762 480.302 70.2762 479.676 70.1907 478.958L70.1051 478.329C69.6746 473.755 68.2094 456.986 67.089 444.524C67.0035 443.984 67.0035 443.447 66.9179 442.82L67.6078 451.249C66.573 440.218 65.6265 429.996 64.7628 420.49C64.9366 419.683 65.0222 418.967 65.196 418.16C65.5382 418.967 65.8831 419.774 66.1425 420.76C68.0382 432.685 69.7602 443.806 71.4821 454.835C71.5677 455.283 71.5677 455.194 71.7415 456.182C71.7415 456.271 71.8271 456.63 71.9126 457.345C71.9982 458.153 72.172 459.23 72.4314 460.663C72.8618 463.444 73.4635 467.3 74.1533 471.425L72.9474 463.355C74.0677 470.44 75.1854 477.343 76.5651 485.861L74.8431 471.962C76.3057 481.109 78.1159 493.215 80.3539 507.114C81.9903 516.62 86.5572 544.777 89.1401 560.828L89.0546 560.109C90.7765 570.871 92.3273 580.914 93.8781 590.24C100.769 550.873 106.453 518.232 113.517 477.88C114.723 470.707 116.36 461.293 118.167 450.531C120.408 437.348 122.991 422.463 125.748 406.68C126.092 405.873 126.437 405.157 126.694 404.35C126.782 405.157 126.953 405.965 127.039 406.772C124.026 437.529 120.838 469.811 118.253 496.353C118.427 494.382 118.512 493.394 118.512 493.305C118.512 492.856 117.737 500.03 116.961 507.203C115.841 518.861 113.689 538.767 113.689 539.933C113.689 540.023 113.689 540.023 113.689 539.844L114.119 535.36C113.344 544.866 110.761 570.693 108.779 590.869L108.263 594.098C108.175 595.172 108.09 596.25 108.004 597.324C110.587 592.124 113.344 586.565 116.271 580.736C119.547 574.189 122.905 567.464 126.349 560.558C133.242 546.84 140.389 532.671 147.194 519.22C160.804 492.319 172.949 468.285 179.064 455.823C184.232 445.598 190.435 433.403 195.861 422.642C196.465 421.926 196.981 421.208 197.583 420.401C197.583 420.49 197.497 420.671 197.497 420.76C197.583 420.671 197.583 420.49 197.583 420.49C197.583 421.208 197.497 421.834 197.497 422.193C185.353 452.594 178.032 470.796 162.184 510.343L165.542 502.093C156.411 524.868 153.654 530.786 145.301 551.772L142.975 558.139C136.601 574.1 130.226 590.061 123.852 606.023C131.347 597.772 138.927 589.613 146.419 581.452C154.689 572.486 162.871 563.608 170.967 554.82C170.451 555.269 169.59 556.165 164.938 561.276C177.687 547.466 212.572 509.177 212.572 509.536C212.572 509.536 212.572 509.536 212.484 509.625C213.003 508.996 214.209 507.741 215.845 505.859C218.171 503.348 221.358 499.852 224.976 495.904C233.588 486.579 244.527 474.743 253.744 464.611C254.779 463.803 255.811 462.904 256.757 462.008C256.5 462.189 256.327 462.367 256.156 462.456C256.415 462.278 256.586 462.1 256.757 462.008C256.156 463.174 255.295 464.43 254.434 465.596C247.885 473.847 243.581 479.225 229.54 496.982C227.818 499.134 226.955 500.3 226.955 500.3C226.955 500.3 227.388 499.76 228.249 498.685C219.118 510.343 219.289 509.803 205.077 528.008L211.107 520.476C197.497 537.693 198.617 536.348 191.037 545.762C182.51 556.524 165.283 578.404 163.39 581.095C162.355 582.348 159.427 585.936 155.809 590.599C155.55 590.958 155.379 591.136 155.034 591.587C155.034 591.587 154.604 592.124 154.344 592.391C151.761 595.62 149.005 599.119 146.074 602.886C145.903 603.064 145.817 603.153 145.817 603.153C145.817 603.242 148.144 600.283 149.435 598.76C143.665 606.023 138.753 612.3 134.36 617.859C142.975 613.734 150.382 610.237 157.446 606.83C165.026 603.153 172.261 599.657 180.443 595.71C180.874 595.442 182.339 594.724 184.147 593.828C158.478 606.201 141.51 614.363 139.528 615.259C139.528 615.17 142.2 613.915 144.783 612.57C147.454 611.223 150.037 609.967 150.037 609.967C150.037 609.967 148.315 610.686 143.577 612.926C160.374 604.946 189.056 591.406 209.385 581.544L211.968 580.196L209.901 581.184L222.821 574.996C229.281 571.856 233.415 569.886 239.618 566.927C241.944 565.671 263.477 555.358 273.899 550.336C273.899 550.336 273.985 550.336 274.244 550.247C274.589 550.066 275.019 549.888 275.535 549.618C277.086 548.902 279.153 547.914 280.533 547.288C281.479 546.84 282.081 546.57 282.081 546.57C282.081 546.57 281.91 546.659 281.651 546.751C280.875 547.107 278.723 548.184 274.33 550.336C274.415 550.336 274.415 550.336 274.415 550.336C274.415 550.336 270.971 551.951 265.113 554.82L260.72 556.972L261.41 556.613C254.605 559.842 245.733 564.146 235.57 568.989C243.837 565.131 252.452 561.009 263.821 555.447C269.42 552.847 275.709 549.888 279.153 548.273C281.394 547.199 283.977 545.943 287.164 544.329C289.405 543.341 291.472 542.355 293.453 541.548C291.816 542.625 290.351 543.611 289.231 544.418C282.771 548.184 276.656 551.772 271.747 554.64C268.043 556.794 265.372 558.406 264.426 559.035C233.848 576.7 192.417 600.731 173.034 611.671C164.336 616.693 163.13 617.5 159.858 619.384L173.553 611.493C166.574 615.529 156.67 621.266 147.454 626.558C153.914 625.213 160.114 623.869 164.938 622.881C170.451 621.714 174.414 620.91 175.791 620.64C182.596 619.204 184.577 618.755 184.577 618.666C184.577 618.666 183.716 618.847 182.77 619.025C181.82 619.204 180.959 619.384 180.959 619.384C180.959 619.384 183.976 618.755 195.69 616.244L191.211 617.144C208.866 613.285 224.802 609.967 240.048 606.741C256.586 603.242 272.348 599.924 288.629 596.517C290.177 596.339 291.816 596.069 293.538 595.801C291.816 596.428 290.092 597.057 288.284 597.683C276.915 601.179 265.198 604.768 252.709 608.534C241.34 612.03 229.195 615.796 216.016 619.922L224.543 617.233C202.064 624.136 179.152 631.221 156.154 638.305C202.494 636.423 249.351 634.45 295.001 632.565C296.207 632.657 297.413 632.657 298.619 632.746C297.501 633.013 296.295 633.372 295.175 633.642C282.512 635.883 269.936 638.127 257.447 640.279C233.76 644.493 231.177 644.852 216.706 647.271L211.623 648.348L186.903 652.563C179.497 653.818 172.518 655.074 165.802 656.24C177.946 658.303 189.575 660.274 202.406 662.517C215.671 664.758 230.056 667.269 247.284 670.409L241.514 669.51C256.845 672.201 289.49 677.941 289.49 677.849C289.49 677.849 289.405 677.849 289.316 677.849C290.522 678.03 292.504 678.39 295.434 679.016C296.295 679.197 297.327 679.464 298.619 679.823C298.188 679.823 297.672 679.912 297.156 679.912L297.071 680.004L295.776 680.093L256.327 679.553C225.578 679.286 261.15 679.912 216.275 679.375C201.115 679.197 174.155 678.749 174.155 678.657C174.155 678.657 174.414 678.657 175.016 678.657C181.735 678.749 192.243 678.838 192.673 678.749L177.427 678.568L178.117 678.657L174.414 678.568H177.427C176.997 678.568 176.395 678.479 175.791 678.479H173.553L174.93 679.823L176.911 681.708L176.481 681.349L180.959 685.741L187.505 692.107C187.248 691.751 179.582 684.218 174.673 679.464C174.24 679.105 174.069 678.838 174.069 678.838C174.069 678.749 193.879 697.847 204.992 708.609C237.808 740.532 211.623 715.423 234.019 737.303L263.132 765.459L263.391 765.818C267.955 770.392 270.712 772.903 271.918 774.069C271.832 773.98 271.832 773.98 271.832 773.98C271.832 773.98 273.209 775.414 275.535 777.657C278.552 780.524 282.856 784.739 287.594 789.404C289.49 791.286 291.472 793.349 293.453 795.322C291.298 793.527 289.145 791.823 287.078 790.212C283.977 787.609 281.134 785.279 278.723 783.216L284.667 788.238C275.276 780.435 266.923 773.532 259.169 767.074C251.934 760.978 245.217 755.416 238.757 749.946C225.837 739.098 213.949 729.055 200.083 717.486L180.443 701.254L176.481 697.758C172.518 694.44 169.676 692.199 166.834 689.866C167.868 692.826 168.9 695.785 170.28 699.732C171.743 704.035 173.553 709.327 176.05 716.768C187.593 750.845 199.393 785.905 211.366 821.327C212.053 823.568 212.743 825.809 213.433 828.052C212.484 825.99 211.452 823.838 210.505 821.775C192.759 780.705 174.844 739.454 157.446 699.284C157.186 702.869 156.841 706.457 156.585 710.042L157.36 700.987C156.411 712.105 155.55 722.419 154.775 732.37C153.999 742.324 153.224 751.741 152.537 760.797C151.071 779.898 149.692 797.652 148.315 815.409C148.055 816.932 147.884 818.457 147.625 819.983C147.454 818.546 147.368 817.202 147.194 815.768C146.938 804.469 146.678 793.079 146.419 781.154C146.162 770.303 145.988 759.004 145.732 746.809L145.903 751.561C145.643 739.994 145.558 736.406 145.558 735.958C145.558 735.688 145.558 736.855 145.643 738.021C145.643 739.187 145.732 740.173 145.732 739.454C145.732 738.739 145.732 736.317 145.558 730.31C145.472 729.144 145.387 725.737 145.301 720.982C145.213 716.679 145.042 711.031 144.871 705.021C140.133 717.038 134.619 731.117 130.916 740.443L136.86 725.378C135.395 728.963 134.79 730.31 131.002 739.903C127.814 748.242 123.076 760.438 117.651 774.158C111.793 789.045 105.247 805.633 99.0467 821.505C98.5279 822.583 97.9263 823.568 97.4103 824.553C97.5814 823.39 97.7525 822.313 97.9263 821.238C99.2178 816.573 100.509 812.18 101.715 807.966C102.664 804.826 107.83 787.072 112.223 771.828C112.913 769.496 113.517 767.255 114.033 765.37L113.344 767.881C116.616 756.582 118.082 751.471 118.772 748.961C119.373 746.72 119.977 744.387 120.579 742.146C122.389 735.869 123.94 730.31 125.403 725.288C126.782 720.267 128.074 715.693 129.28 711.209C126.178 722.238 123.421 732.014 121.269 739.365L121.44 738.647L120.063 743.491C118.253 749.857 117.221 753.712 117.221 753.712C116.015 758.019 115.584 759.363 115.584 759.274C115.584 759.182 116.015 757.749 116.36 756.315C116.79 754.879 117.135 753.356 117.135 753.264C120.408 741.787 127.039 718.112 127.9 715.512C128.59 713.182 129.106 711.209 129.71 709.235C128.675 710.939 127.558 712.642 126.178 714.797L118.427 727.17L119.632 725.197L117.996 727.707C117.566 728.426 117.047 729.233 116.616 729.951C112.483 736.495 111.362 738.469 111.362 738.38C111.362 738.38 111.362 738.291 111.448 738.199C100.164 756.315 86.9877 777.565 78.632 791.016C81.3887 786.534 82.4208 784.831 82.4208 784.831C82.4208 784.739 75.9608 795.052 75.8752 794.963C77.0811 793.079 87.2444 776.758 102.75 752.101C101.63 753.893 100.769 755.238 100.424 755.686C96.5466 761.874 92.9289 767.614 89.3112 773.262C89.2257 773.351 89.1401 773.532 89.0546 773.621C88.969 773.799 88.969 773.71 88.8808 773.891C82.5946 784.023 76.1346 794.334 67.7789 807.696C67.1746 808.592 67.1746 808.592 66.4019 809.939C66.1425 810.296 65.8831 810.747 65.6265 811.103C63.0409 815.139 60.4579 819.354 57.4419 824.105C57.1852 824.375 56.9258 824.823 56.6665 825.183C56.9258 824.734 57.2707 824.286 57.5301 823.927C58.3028 822.672 58.9071 821.686 59.3376 821.057C58.8216 821.864 58.3028 822.761 57.7012 823.749C57.1852 825.631 56.1504 827.064 55.0301 828.679C55.7199 827.782 55.9793 827.423 55.9793 827.423C55.9793 827.423 55.5488 828.052 55.0301 828.679ZM127.213 719.368C126.868 720.445 126.178 722.956 124.026 730.577L123.25 733.625L123.507 732.64L127.213 719.368ZM242.546 566.03L254.605 560.201L255.466 559.842L252.709 561.098C245.733 564.416 243.495 565.49 242.546 566.03ZM-41.9578 680.004L-54.1023 682.423H-54.1879C-54.1879 682.423 -52.0354 682.064 -50.0541 681.708C-47.8135 681.259 -44.9712 680.63 -41.9578 680.004ZM66.8324 709.057C66.4874 709.235 66.1425 709.327 65.7976 709.505H65.712L66.8324 709.057ZM-58.1505 765.64L-35.0673 755.238L-40.062 757.479L-58.1505 765.64ZM263.993 555.895L268.043 553.924L265.198 555.269L261.495 557.061L263.993 555.895C263.907 555.895 263.907 555.895 263.993 555.895Z" fill="#74F0ED"/>
</g>
<mask id="mask2_39_578" style="mask-type:luminance" maskUnits="userSpaceOnUse" x="0" y="373" width="216" height="156">
<path d="M0.357422 373H215.357V528.588H0.357422V373Z" fill="white"/>
</mask>
<g mask="url(#mask2_39_578)">
<path d="M215.357 373V528.588H0.526367V373H215.357Z" fill="#FFF3EF"/>
</g>
<mask id="mask3_39_578" style="mask-type:luminance" maskUnits="userSpaceOnUse" x="0" y="373" width="215" height="156">
<path d="M0 373H215V528.333H0V373Z" fill="white"/>
</mask>
<g mask="url(#mask3_39_578)">
<path d="M83.4768 556.758C83.4768 556.758 89.5208 496.119 0.0857155 497.438C0.0857155 497.438 123.86 447.243 -41.0858 420.79C-41.0858 420.79 73.8895 415.918 26.9527 376.295C26.9527 376.295 109.743 436.723 118.98 344.915C118.98 344.915 123.338 430.707 181.282 381.731C181.282 381.731 158.235 442.96 235.793 422.314C235.793 422.314 121.657 452.134 229.624 506.727C229.624 506.727 112.844 455.804 143.692 545.265C143.692 545.268 100.917 461.714 83.4768 556.758Z" fill="#EA445A"/>
</g>
<mask id="mask4_39_578" style="mask-type:luminance" maskUnits="userSpaceOnUse" x="0" y="783" width="216" height="156">
<path d="M0.357422 783H215.357V938.588H0.357422V783Z" fill="white"/>
</mask>
<g mask="url(#mask4_39_578)">
<path d="M215.357 783V938.588H0.526367V783H215.357Z" fill="#FFF3EF"/>
</g>
<mask id="mask5_39_578" style="mask-type:luminance" maskUnits="userSpaceOnUse" x="0" y="783" width="215" height="156">
<path d="M0 783H215V938.333H0V783Z" fill="white"/>
</mask>
<g mask="url(#mask5_39_578)">
<path d="M83.4768 966.758C83.4768 966.758 89.5208 906.119 0.0857155 907.438C0.0857155 907.438 123.86 857.243 -41.0858 830.79C-41.0858 830.79 73.8895 825.918 26.9527 786.295C26.9527 786.295 109.743 846.723 118.98 754.915C118.98 754.915 123.338 840.707 181.282 791.731C181.282 791.731 158.235 852.96 235.793 832.314C235.793 832.314 121.657 862.134 229.624 916.727C229.624 916.727 112.844 865.804 143.692 955.265C143.692 955.268 100.917 871.714 83.4768 966.758Z" fill="#EA445A"/>
</g>
<mask id="mask6_39_578" style="mask-type:luminance" maskUnits="userSpaceOnUse" x="1" y="0" width="215" height="156">
<path d="M1.35681 0H216V155.33H1.35681V0Z" fill="white"/>
</mask>
<g mask="url(#mask6_39_578)">
<path d="M216 0V155.33H1.52539V0H216Z" fill="#FFF3EF"/>
</g>
<mask id="mask7_39_578" style="mask-type:luminance" maskUnits="userSpaceOnUse" x="1" y="0" width="215" height="156">
<path d="M1 0H215.643V155.075H1V0Z" fill="white"/>
</mask>
<g mask="url(#mask7_39_578)">
<path d="M84.3383 183.453C84.3383 183.453 90.3722 122.914 1.08562 124.232C1.08562 124.232 124.655 74.1196 -40.0176 47.711C-40.0176 47.711 74.7669 42.8471 27.908 3.28993C27.908 3.28993 110.561 63.6174 119.782 -28.0383C119.782 -28.0383 124.133 57.6114 181.981 8.7165C181.981 8.7165 158.972 69.8435 236.402 49.232C236.402 49.232 122.455 79.0029 230.242 133.506C230.242 133.506 113.657 82.6662 144.453 171.979C144.453 171.982 101.75 88.5663 84.3383 183.453Z" fill="#EA445A"/>
</g>
<mask id="mask8_39_578" style="mask-type:luminance" maskUnits="userSpaceOnUse" x="0" y="155" width="215" height="219">
<path d="M0 155H215V373.341H0V155Z" fill="white"/>
</mask>
<g mask="url(#mask8_39_578)">
<path d="M46.5471 391.66C47.3383 391.66 48.1247 391.66 48.9159 391.66C50.2283 391.66 51.5406 391.655 52.853 391.655C55.1799 391.655 57.4975 391.578 59.8243 391.466C60.0663 391.442 60.3083 391.423 60.5503 391.398C61.6579 391.224 62.7702 391.045 63.8824 390.87C64.2175 390.817 64.5526 390.764 64.883 390.71C65.958 390.454 67.0237 390.153 68.0895 389.867C68.5316 389.746 68.9597 389.577 69.3925 389.431C69.816 389.291 70.2395 389.15 70.6583 389.005C71.4867 388.666 72.3151 388.322 73.1435 387.978C73.7345 387.736 74.3069 387.445 74.8886 387.178C75.5727 386.863 76.2755 386.607 76.9782 386.35C77.4575 386.18 77.9415 386.016 78.4209 385.865C81.4086 383.879 84.0287 381.243 86.1089 377.716C89.5992 372.435 91.9168 366.137 90.9488 359.65C90.5207 354.122 90.4416 348.56 89.6923 343.061C88.7476 337.474 87.7843 331.893 87.6353 326.205C87.3747 321.249 86.8768 316.283 86.8488 311.321C86.8768 310.827 86.9047 310.333 86.928 309.839C87.0257 308.071 87.1095 306.302 87.1839 304.534C87.1979 304.422 87.2072 304.311 87.2212 304.199C87.3515 303.366 87.505 302.538 87.6726 301.714C89.6597 311.888 92.8476 321.83 96.8777 331.278C99.4978 338.036 102.611 344.882 106.637 350.972C106.716 351.176 106.804 351.374 106.907 351.568C109.955 358.85 116.065 363.579 122.171 367.954C130.915 374.901 141.261 379.213 151.997 381.481C159.327 383.288 166.833 383.753 174.34 383.525C183.773 383.564 193.313 383.487 202.574 381.442C214.772 378.535 227.467 368.337 221.469 354.039C217.415 345.788 204.329 341.423 196.594 337.164C188.622 332.993 180.232 329.839 171.836 326.723C162.552 322.053 152.76 318.536 143.583 313.608C133.056 308.017 123.134 301.157 114.427 292.824C108.88 287.557 102.909 281.932 99.8701 274.737C108.605 282.441 118.336 288.638 128.388 294.267C139.478 302.421 151.811 308.676 164.493 313.875C170.649 317.479 176.913 320.861 183.457 323.657C192.95 327.281 206.842 327.755 215.475 321.283C216.364 320.851 217.22 320.338 218.025 319.752C220.631 318.245 222.949 316.244 224.703 313.734C227.449 308.57 225.159 302.106 222.888 297.174C220.743 292.794 218.016 288.584 214.279 285.527C212.906 284.083 211.393 282.756 209.746 281.583C192.187 267.417 168.946 268.211 148.083 264.103C136.174 261.69 125.159 256.249 115.13 249.268C117.564 249.389 119.993 249.849 122.376 250.426C123.381 250.605 124.386 250.789 125.391 250.978C137.91 254.568 150.559 257.62 163.487 259.059C168.471 259.936 173.539 260.082 178.561 259.466C183.131 258.948 187.873 258.381 192.485 257.339C203.756 256.511 214.325 249.457 220.356 239.602C223.712 233.735 224.857 226.753 225.508 220.043C225.513 216.967 226.127 213.619 224.675 210.789C221.85 205.867 215.884 205.135 210.867 205.334C205.45 205.31 199.489 205.416 193.216 205.707C190.293 205.6 187.361 205.591 184.429 205.673C183.056 205.625 181.684 205.615 180.315 205.629C180.087 205.629 179.864 205.634 179.641 205.639C176.625 205.697 173.614 205.906 170.622 206.25C159.55 207.083 147.734 208.808 136.924 211.303C129.091 212.868 121.329 215.033 114.064 218.498C110.215 220.503 105.552 222.732 101.583 225.605C107.446 215.116 119.081 208.478 130.115 205.445C147.571 200.843 165.158 196.691 182.842 193.183C194.593 190.702 209.485 189.258 218.248 180.005C221.618 176.536 223.051 171.73 222.944 166.87C224.782 154.128 203.231 153.643 194.877 153.425C186.398 152.655 178.277 155.01 170.333 157.796C167.839 158.227 165.363 158.769 162.92 159.438C150.606 161.875 138.641 166.143 127.523 172.34C119.584 176.352 111.807 180.785 105.306 187.088C98.7625 193.042 94.8068 201.245 89.6597 208.391C86.8442 212.248 84.0287 216.143 81.5203 220.232C80.9618 211.468 82.6232 206.264 86.4719 197.955C87.1607 196.192 87.9564 194.472 88.8453 192.81C91.3863 188.987 94.3228 185.421 97.4502 182.098C98.5578 180.882 99.7212 179.743 100.927 178.667C102.839 177.277 104.887 176.071 107.065 175.082C116.382 170.717 126.038 167.17 135.397 162.883C139.939 160.954 144.537 159.191 149.121 157.374C152.839 156.114 156.688 154.089 154.966 149.312C150.359 143.27 141.545 143.522 134.741 143.193C129.775 143.222 124.791 142.999 119.835 143.353C116.358 143.237 112.882 143.251 109.406 143.406C98.1296 144.133 86.9652 147.539 77.4715 154.012C65.609 161.24 62.7702 176.948 62.3839 190.174C62.2024 195.634 62.8819 201.041 64.1384 206.313C63.9057 206.027 63.6777 205.726 63.4683 205.416C59.4707 199.089 58.6609 191.201 58.2839 183.803C58.2607 180.082 58.2607 176.361 58.2653 172.645C58.2653 170.572 58.27 168.498 58.2653 166.429C59.1821 158.653 54.4492 154.196 47.6361 152.408C38.9708 149.603 29.9517 148.624 20.9048 148.871C16.2836 148.343 11.9323 150.426 9.46114 154.564C5.88703 159.322 5.03074 165.402 5.2355 171.289C4.6817 177.151 7.03652 182.64 10.4384 187.185C22.031 204.612 42.3634 211.332 58.0652 223.769C54.1421 223.769 50.1073 224.011 46.361 222.562C38.9149 219.554 32.4648 214.462 25.2886 210.867C19.4761 207.684 13.0864 205.344 6.44549 205.474C-6.15229 204.108 -6.67817 220.649 -6.38033 230.004C-6.33845 231.317 -6.35241 232.843 -6.36637 234.5C-6.44548 244.127 -6.5246 258.008 3.83937 258.744C11.8625 259.379 19.8205 258.386 27.4852 255.857C35.5828 253.647 43.7223 251.496 51.5034 248.25C51.3917 248.323 51.28 248.391 51.1637 248.459C46.1236 251.351 40.7857 253.618 35.6898 256.399C31.1664 258.977 26.722 261.714 22.2171 264.331C16.0928 268.26 8.82822 270.237 3.54153 275.493C-0.344377 279.122 -2.39669 284.195 -4.66309 288.972C-6.86432 293.177 -7.83231 297.886 -8.79564 302.528C-10.1732 309.199 -11.0108 316.011 -11.2016 322.838C-11.2528 323.715 -11.2808 324.592 -11.2808 325.459C-11.2808 333.414 -9.16795 340.963 -5.24015 347.876C5.41235 367.469 18.0287 338.778 22.6546 328.918C24.907 324.146 27.0571 319.32 29.4026 314.601C34.1913 306.346 39.5339 298.453 44.4203 290.261C47.1707 285.784 49.7675 281.201 52.5179 276.719C54.6819 272.848 57.4323 269.374 60.9878 266.884C56.7761 276.37 51.7919 285.45 47.3429 294.81C41.4698 307.106 36.1459 319.703 29.6074 331.641C23.6552 341.588 17.1585 351.176 11.6065 361.389C10.3872 363.579 9.27499 365.827 8.20462 368.094C8.11619 368.656 8.0557 369.228 7.98589 369.79C7.98124 370.299 7.97658 370.807 7.97658 371.316C7.97658 371.326 7.97658 371.331 7.97658 371.336C7.97658 371.839 7.98123 372.343 7.99054 372.842C8.16273 373.554 8.36284 374.257 8.58623 374.95C8.94922 375.987 9.36341 377.004 9.82879 377.997C9.82879 378.002 9.82879 378.002 9.82879 378.002C9.83344 378.017 9.84275 378.031 9.85205 378.051C9.85671 378.065 9.86136 378.08 9.87067 378.089C10.4105 379.179 11.0015 380.236 11.6438 381.258C11.7834 381.466 11.923 381.67 12.0673 381.873C12.4582 382.314 12.8631 382.745 13.2912 383.152C13.6356 383.462 13.9939 383.753 14.3616 384.029C14.8735 384.364 15.404 384.664 15.9439 384.95C16.9118 385.439 17.9077 385.836 18.913 386.238C19.76 386.534 20.6069 386.825 21.4586 387.106C22.5895 387.479 23.7203 387.818 24.8651 388.147C25.3212 388.273 25.7726 388.394 26.2287 388.516C26.3311 388.54 26.4288 388.564 26.5312 388.593C26.7034 388.637 26.8709 388.68 27.0431 388.724C27.0478 388.724 27.0524 388.724 27.0571 388.724C28.2764 389.029 29.505 389.31 30.7336 389.586C32.4369 389.945 34.1355 390.294 35.8434 390.638C37.9981 391.069 40.1668 391.447 42.3587 391.626C43.7548 391.704 45.1463 391.66 46.5471 391.66ZM66.8841 247.572C65.5811 245.736 64.3897 243.812 63.3705 241.792C62.8121 240.828 62.9656 239.713 62.9703 238.638C62.8586 237.029 63.1425 235.489 64.1524 234.219C64.7108 233.333 65.595 231.981 66.5677 231.298C68.0569 230.135 69.8579 230.101 71.631 230.203C72.9759 230.213 74.3255 230.169 75.6565 230.406C78.0625 231.08 79.9473 232.96 82.2183 233.977C85.0804 235.649 88.0914 237.044 90.8325 238.933C93.0756 240.644 94.8394 242.858 96.2588 245.309C97.6177 249.539 97.5153 254.035 97.4595 258.473C96.7847 259.805 95.9796 261.046 94.8813 262.068C90.3625 262.305 86.0019 260.571 81.86 258.861C76.1498 256.404 70.4722 252.945 66.8841 247.572Z" fill="black"/>
</g>
<mask id="mask9_39_578" style="mask-type:luminance" maskUnits="userSpaceOnUse" x="57" y="223" width="52" height="45">
<path d="M57.7395 223.042H108.968V267.693H57.7395V223.042Z" fill="white"/>
</mask>
<g mask="url(#mask9_39_578)">
<mask id="mask10_39_578" style="mask-type:luminance" maskUnits="userSpaceOnUse" x="51" y="214" width="65" height="62">
<path d="M69.6159 214.457L115.511 239.767L97.2547 275.634L51.3638 250.324L69.6159 214.457Z" fill="white"/>
</mask>
<g mask="url(#mask10_39_578)">
<mask id="mask11_39_578" style="mask-type:luminance" maskUnits="userSpaceOnUse" x="58" y="223" width="51" height="44">
<path d="M92.5032 227.078C79.8636 220.106 65.5299 222.485 60.4899 232.388C55.4498 242.296 61.6114 255.973 74.2511 262.945C86.8908 269.917 101.224 267.538 106.264 257.635C111.305 247.732 105.143 234.05 92.5032 227.078Z" fill="white"/>
</mask>
<g mask="url(#mask11_39_578)">
<path d="M69.6159 214.457L115.377 239.694L97.1244 275.561L51.3638 250.324L69.6159 214.457Z" fill="#EA445A"/>
</g>
</g>
</g>
</svg>
